<?xml version="1.0" encoding="UTF-8" standalone="no"?>
<svg
   xmlns:dc="http://purl.org/dc/elements/1.1/"
   xmlns:cc="http://creativecommons.org/ns#"
   xmlns:rdf="http://www.w3.org/1999/02/22-rdf-syntax-ns#"
   xmlns:svg="http://www.w3.org/2000/svg"
   xmlns="http://www.w3.org/2000/svg"
   xmlns:sodipodi="http://sodipodi.sourceforge.net/DTD/sodipodi-0.dtd"
   xmlns:inkscape="http://www.inkscape.org/namespaces/inkscape"
   inkscape:version="1.0 (4035a4fb49, 2020-05-01)"
   sodipodi:docname="dibujo.svg"
   id="svg36"
   viewBox="0 0 66.448532 66.444603"
   version="1.1"
   height="66.444603mm"
   width="66.448532mm">
  <defs
     id="defs40" />
  <sodipodi:namedview
     inkscape:current-layer="svg36"
     inkscape:window-maximized="1"
     inkscape:window-y="0"
     inkscape:window-x="0"
     inkscape:cy="218.15788"
     inkscape:cx="83.720445"
     inkscape:zoom="0.83027497"
     fit-margin-bottom="0"
     fit-margin-right="0"
     fit-margin-left="0"
     fit-margin-top="0"
     showgrid="false"
     id="namedview38"
     inkscape:window-height="731"
     inkscape:window-width="1280"
     inkscape:pageshadow="2"
     inkscape:pageopacity="0"
     guidetolerance="10"
     gridtolerance="10"
     objecttolerance="10"
     borderopacity="1"
     bordercolor="#666666"
     pagecolor="#ffffff" />
  <metadata
     id="metadata2">
    <rdf:RDF>
      <cc:Work
         rdf:about="">
        <dc:format>image/svg+xml</dc:format>
        <dc:type
           rdf:resource="http://purl.org/dc/dcmitype/StillImage" />
        <dc:title></dc:title>
      </cc:Work>
    </rdf:RDF>
  </metadata>
  <g
     transform="translate(-35.485462,-59.776001)"
     id="g24"
     stroke-width="0.26458"
     fill-rule="evenodd">
    <circle
       id="circle4"
       fill="#ff0000"
       r="33.222"
       cy="92.998001"
       cx="68.711998" />
    <path
       id="path6"
       fill="#008080"
       d="m 101.93,92.998 a 33.222,33.222 0 0 1 -20.425,30.658 33.222,33.222 0 0 1 -36.16,-7.0391 33.222,33.222 0 0 1 -7.4331,-36.081" />
    <path
       id="path8"
       fill="#00ffff"
       d="m 101.93,92.998 a 33.222,33.222 0 0 1 -16.853,28.91 33.222,33.222 0 0 1 -33.461,-0.42134 33.222,33.222 0 0 1 -16.12,-29.325" />
    <path
       id="path10"
       fill="#ff00ff"
       d="M 101.93,92.998 A 33.222,33.222 0 0 1 73.13,125.924 33.222,33.222 0 0 1 36.663,101.763" />
    <path
       id="path12"
       fill="#800080"
       d="M 101.93,92.998 A 33.222,33.222 0 0 1 77.382,125.068 33.222,33.222 0 0 1 40.015,109.744" />
    <path
       id="path14"
       fill="#550000"
       d="M 101.93,92.998 A 33.222,33.222 0 0 1 81.385,123.706 33.222,33.222 0 0 1 45.16,116.4326" />
    <path
       id="path16"
       fill="#ff8080"
       d="m 101.93,92.998 a 33.222,33.222 0 0 1 -15.932,28.369 33.222,33.222 0 0 1 -32.516,1.1588" />
    <path
       id="path18"
       fill="#c83737"
       d="m 101.93,92.998 a 33.222,33.222 0 0 1 -10.946,24.647 33.222,33.222 0 0 1 -25.625,8.4057" />
    <path
       id="path20"
       fill="#008000"
       d="M 101.93,92.998 A 33.222,33.222 0 0 1 76.608,125.267" />
    <path
       id="path22"
       fill="#00ff00"
       d="m 101.93,92.998 a 33.222,33.222 0 0 1 -15.484,28.09" />
  </g>
  <text
     id="text28"
     xml:space="preserve"
     style="line-height:1.25;font-variant-ligatures:normal;font-variant-caps:normal;font-variant-numeric:normal;font-variant-east-asian:normal"
     stroke-width="0.66513"
     stroke-opacity="0.99608"
     stroke="#000000"
     font-weight="bold"
     font-size="26.605px"
     font-family="'DejaVu Serif'"
     fill="#ffffff"
     y="39.336716"
     x="12.862736"><tspan
       id="tspan26"
       style="font-variant-ligatures:normal;font-variant-caps:normal;font-variant-numeric:normal;font-variant-east-asian:normal"
       stroke-width="0.66513"
       stroke-opacity="0.99608"
       stroke="#000000"
       font-weight="bold"
       font-size="26.605px"
       font-family="'DejaVu Serif'"
       fill="#ffffff"
       y="39.336716"
       x="12.862736">Z</tspan></text>
  <g
     id="g34"
     stroke="#000000"
     fill="#ffffff"
     transform="matrix(0.26458,0,0,0.26458,26.766538,25.151999)">
    <g
       id="g32"
       stroke="#000000"
       fill="#ffffff">
      <path
         id="path30"
         stroke="#000000"
         fill="#ffffff"
         d="m 91.645,8.355 c -4.474,-4.474 -11.727,-4.474 -16.2,0 l -13.5,13.501 -3.727,-3.727 c -1.959,-1.959 -5.134,-1.959 -7.093,0 -1.959,1.959 -1.959,5.134 0,7.093 l 3.727,3.727 -41.51,41.508 c -2.039,2.039 -3.149,4.656 -3.329,7.324 -0.073,1.087 -0.347,3.105 -0.675,5.292 -0.053,0.359 -0.212,0.706 -0.487,0.983 l -3.105,3.106 c -0.994,0.994 -0.994,2.606 0,3.6 l 3.493,3.493 c 0.994,0.994 2.606,0.994 3.6,0 l 3.106,-3.105 c 0.277,-0.275 0.622,-0.433 0.981,-0.486 2.187,-0.329 4.205,-0.602 5.293,-0.675 2.668,-0.18 5.285,-1.29 7.325,-3.33 l 41.508,-41.508 3.727,3.727 c 1.959,1.959 5.134,1.959 7.093,0 1.959,-1.959 1.959,-5.134 0,-7.093 l -12.365,-12.366 9.697,7.577 12.44,-12.441 c 4.475,-4.473 4.474,-11.726 10e-4,-16.2 z m -26.594,34.394 -20.53,20.53 c -0.994,0.994 -2.606,0.994 -3.6,0 l -3.27,-3.27 c -0.994,-0.993 -2.605,-0.993 -3.599,10e-4 l -0.616,0.616 -0.002,-0.002 -14.728,14.727 c -0.337,0.337 -0.819,0.401 -1.076,0.143 -0.257,-0.258 -0.194,-0.74 0.143,-1.076 l 23.841,-23.841 0.004,0.004 15.633,-15.633 c 0.994,-0.994 2.606,-0.994 3.6,0 l 4.2,4.201 c 0.994,0.994 0.994,2.606 0,3.6 z" />
    </g>
  </g>
</svg>
